<svg xmlns="http://www.w3.org/2000/svg" width="512" height="512" viewBox="18 18 72 72">
  <!--
    Exact conversion of the app launcher icon:
    - background: app/src/main/res/drawable/ic_launcher_background.xml (#F8F7F0)
    - foreground: app/src/main/res/drawable/ic_launcher_foreground.xml (paths unchanged)
    viewBox is the 72dp launcher-visible window of the 108dp adaptive canvas,
    so the Play icon matches what users see on device.
  -->
  <rect x="18" y="18" width="72" height="72" fill="#F8F7F0"/>
  <g transform="translate(25.2 25.2) scale(1.2)" fill="none" stroke="#000000" stroke-width="3" stroke-linecap="round" stroke-linejoin="round">
    <path d="M11.999,41a32.85,32.85 0,0,0 16.68,-4.52c0.665,-0.39 0.61,-1.348 -0.081,-1.691L25,33c3.303,0 10,-1.337 10,-1.337c7.147,-6.948 10.78,-16.97 9.848,-26.842a1.85,1.85 0,0,0 -1.67,-1.67A33.2,33.2 0,0,0 28,5.25S26.348,9.142 26,11l-2.024,-2.817a0.98,0.98 0,0,0 -1.309,-0.271C13.264,13.687 7,23.36 7,36.5"/>
    <path d="M3,45c5,-14.5 21,-27 34,-34"/>
  </g>
</svg>
